<svg width="342" height="164" viewBox="0 0 342 164" fill="none" xmlns="http://www.w3.org/2000/svg">
<g clip-path="url(#clip0_216_37)">
<path d="M208.739 3.74215C210.573 2.40466 212.183 0.27036 214.568 -0.0284424C225.54 6.10413 234.873 14.5133 243.519 23.3351C237.556 32.5553 229.521 40.2957 221.411 47.7515C219.816 48.9894 217.833 51.3371 215.612 49.9285C210.867 47.2067 206.378 44.098 202.195 40.6372C196.872 36.2547 191.207 32.1 187.078 26.5508C193.041 17.9709 200.898 10.8565 208.739 3.74215ZM220.516 19.1091C216.503 23.0168 212.172 26.6138 207.561 29.866C206.251 27.1369 205.916 24.0725 206.607 21.1439L209.44 21.9834C208.59 23.1217 206.786 23.9753 206.995 25.5547C208.709 26.1523 209.529 24.018 210.737 23.2497L212.734 24.3453L213.957 22.6663C210.975 20.7027 207.86 18.5258 204.147 17.8997C203.386 22.6882 203.696 27.5763 205.057 32.2422C205.37 33.5086 207.054 32.6264 207.755 32.2422C213.033 28.557 217.073 23.4916 222.514 19.9914C223.836 22.7915 224.12 25.938 223.319 28.9127C221.607 28.0582 219.949 27.1079 218.355 26.067C217.43 25.2275 216.7 26.5365 216.044 26.9776C218.962 29.2313 222.322 30.9052 225.928 31.9008C226.781 26.7629 226.394 21.5068 224.795 16.5337C223.196 17.1106 221.739 17.9972 220.516 19.1376V19.1091Z" fill="#005ADC"/>
<path d="M28.8317 10.8565C31.6046 8.7222 35.1228 7.74042 38.4323 6.58789C41.9953 11.3687 46.1099 15.7796 49.4939 20.6885C45.6477 23.0932 42.3382 26.8638 42.04 31.417C42.0242 32.634 42.3523 33.8326 42.9898 34.8868C43.6273 35.9409 44.5506 36.8116 45.6626 37.4073C51.7152 41.0925 58.9455 42.2592 65.8031 43.924C75.6422 46.3002 85.7795 47.6235 95.4249 50.7111C95.0522 63.2181 94.2025 75.7109 94.0534 88.2322C93.2335 103.699 93.6359 119.194 92.8458 134.646C83.3644 134.945 73.8831 135.557 64.3868 135.614C62.7171 130.491 61.6289 125.227 60.1828 120.048C55.2822 118.104 50.2462 116.488 45.111 115.21C43.9333 115.338 43.6948 116.718 43.0537 117.458C39.7293 123.064 36.6136 128.841 33.0357 134.234C32.2158 135.656 30.2777 135.016 28.936 135.187C21.2436 135.03 13.5512 135.301 5.85879 135.301C3.42882 135.4 1.80384 133.394 0.0149078 132.156C10.8827 109.632 21.6313 87.037 31.4406 64.0718C32.1562 62.3075 32.9314 60.3581 32.2754 58.4657C31.2319 55.1647 28.1459 53.0588 25.3582 51.1237C19.9814 47.6234 14.6445 44.0568 9.34721 40.4237C11.807 35.401 13.6854 30.0368 16.8906 25.384C19.2162 24.9571 20.6175 27.3334 22.1977 28.5286C21.9766 25.3063 22.4514 22.0751 23.5925 19.0352C24.7337 15.9953 26.5169 13.2115 28.8317 10.8565ZM54.175 74.2169C52.4755 78.5851 50.7611 82.9534 49.1809 87.3643C48.9125 88.5168 48.0926 90.21 49.4492 90.9783C53.6351 92.565 57.9605 93.7935 62.3743 94.6493C63.5222 93.7956 65.1173 93.2976 65.8776 92.0882C66.2968 86.3362 66.2669 80.5623 65.7881 74.8145C65.5794 73.8043 65.7136 72.2534 64.2974 71.9688C61.976 71.0931 59.5036 70.6395 57.0075 70.6313C55.4123 71.0297 54.9055 72.9079 54.2495 74.2169H54.175Z" fill="#005ADC"/>
<path d="M294.012 25.7397C297.426 24.2702 301.016 23.2047 304.701 22.5668C306.296 27.1911 306.102 32.1284 306.713 36.9093C307.256 40.147 307.535 43.4199 307.548 46.6986C304.85 48.776 301.585 50.2273 299.185 52.5893C294.936 56.1892 292.104 60.9273 289.062 65.3951C284.709 63.9723 280.669 61.6957 276.182 60.5716C275.168 63.4174 274.229 66.5904 275.452 69.5215C276.595 72.3231 278.648 74.7017 281.31 76.3086C284.56 74.1316 286.886 71.0155 289.867 68.5824C292.148 68.7816 294.057 70.2187 296.144 71.0155C301.913 73.7616 308.428 74.0746 314.674 75.0991C314.152 79.6523 313.705 84.2197 312.945 88.7444C312.84 90.0819 311.29 90.3238 310.276 90.8503C303.851 93.2691 297.366 95.5885 290.985 98.1069C291.671 99.8713 292.362 101.631 293.058 103.386C307.28 103.827 321.487 104.666 335.709 104.282C337.528 106.274 341.508 108.11 340.092 111.24C338.154 116.803 335.619 122.168 333.294 127.603C332.981 128.656 332.176 129.723 332.489 130.847C335.575 132.882 339.048 134.319 342.015 136.539V137.051C341.344 138.559 340.718 140.395 338.869 140.878C331.415 143.411 323.962 145.673 316.642 148.263C313.989 149.237 311.211 149.864 308.383 150.127C307.757 143.511 308.666 136.894 308.964 130.278C295.13 130.406 281.385 132.114 267.565 132.668C266.075 132.668 263.883 132.668 263.659 130.89C260.797 122.011 259.053 112.848 256.519 103.855C251.525 85.9129 247.41 67.7571 243.102 49.6582C242.925 48.8058 242.85 47.9371 242.878 47.0686C246.053 44.5359 250.049 43.2411 253.761 41.6332C267.178 36.3401 280.446 30.7056 294.012 25.7397Z" fill="#005ADC"/>
<path d="M147.021 73.975C156.83 66.7326 166.237 58.9922 175.987 51.6644C182.919 57.982 190.507 63.8158 196.231 71.2147C187.57 78.0445 178.879 84.8458 170.247 91.7183C171.521 95.154 173.542 98.2933 176.178 100.93C178.815 103.566 182.006 105.64 185.543 107.014C190.671 108.85 195.799 106.331 200.227 104.04C202.308 109.931 203.947 115.955 205.131 122.068C198.96 126.835 192.385 131.189 185.751 135.386C185.058 135.972 184.169 136.303 183.243 136.321C182.318 136.34 181.416 136.044 180.698 135.486C171.822 129.899 163.25 123.913 154.982 117.529C153.014 115.973 150.937 114.546 148.765 113.26C139.656 121.371 130.548 129.481 121.186 137.307C119.918 137.307 119.188 136.098 118.204 135.457C111.515 129.586 104.871 123.662 98.2722 117.686C96.9305 116.846 98.5853 115.594 99.1369 114.84C105.786 107.953 112.479 101.081 119.009 94.1087C112.971 85.5714 107.53 76.6216 101.954 67.7856C101.12 66.818 102.745 66.2631 103.341 65.7508C110.586 61.2546 118.01 57.0286 125.524 52.945C132.769 59.9313 139.537 67.2875 147.021 73.975Z" fill="#005ADC"/>
<path d="M198.661 56.559C211.423 54.567 224.198 52.7173 237.034 51.2233C238.525 60.8846 238.435 70.7024 239.255 80.4206C240.11 96.4611 241.069 112.502 242.133 128.542C242.282 129.965 242.297 132.056 240.165 131.502C230.743 130.079 221.306 128.656 212.004 126.664C210.126 126.422 209.962 124.33 209.678 122.922C208.486 115.494 206.458 108.209 205.325 100.782C204.953 98.7756 206.473 97.1393 207.248 95.4176C211.445 88.0148 212.512 79.3591 210.23 71.2288C207.055 70.9158 203.834 71.0865 200.689 70.5601C199.4 65.9928 198.719 61.2888 198.661 56.559Z" fill="#005ADC"/>
<path d="M186.243 81.1748C186.661 80.2499 187.615 78.5282 188.927 79.4104C191.908 82.4696 192.072 87.0228 192.132 90.9783C191.908 93.6676 192.132 97.3243 189.061 98.6903C187.229 96.1665 186.023 93.2777 185.534 90.2428C185.046 87.208 185.289 84.1069 186.243 81.1748Z" fill="#005ADC"/>
<path d="M166.893 146.399H171.976C174.198 149.558 176.285 152.816 178.491 155.989C178.491 152.788 178.491 149.572 178.73 146.371H183.962C183.962 152.219 184.067 158.067 184.126 163.929H178.894C176.896 161.183 174.869 158.479 172.841 155.747C172.841 158.479 172.767 161.225 172.737 163.972H166.52C166.714 158.095 166.789 152.247 166.893 146.399Z" fill="#005ADC"/>
<path d="M97.9443 146.399H104.593C104.593 152.247 104.519 158.095 104.489 163.943H97.8101C97.8399 158.109 97.8548 152.261 97.9443 146.399Z" fill="#005ADC"/>
<path d="M110.869 146.399H116.057C118.234 149.601 120.336 152.845 122.527 156.018C122.527 152.816 122.602 149.586 122.647 146.371H127.939C128.028 152.219 127.939 158.067 128.088 163.915H122.96C120.947 161.24 119.054 158.479 116.847 155.961C116.758 158.607 116.743 161.268 116.728 163.929H110.571C110.69 158.095 110.765 152.247 110.869 146.399Z" fill="#005ADC"/>
<path d="M134.275 146.399H147.93C147.93 147.993 147.93 149.586 147.93 151.18C145.366 151.18 142.802 151.18 140.253 151.18C140.133 151.991 140.014 152.802 139.895 153.627L144.203 153.727L144.516 156.914H140.253C140.253 159.257 140.287 161.605 140.357 163.957H133.932C133.976 158.095 134.066 152.247 134.275 146.399Z" fill="#005ADC"/>
<path d="M153.923 146.584C156.087 146.368 158.265 146.311 160.438 146.413C160.438 152.261 160.438 158.109 160.348 163.957H153.655C153.804 158.166 153.446 152.361 153.923 146.584Z" fill="#005ADC"/>
<path d="M190.283 146.399H196.932C196.932 152.247 196.858 158.095 196.843 163.943H190.149C190.209 158.109 190.224 152.261 190.283 146.399Z" fill="#005ADC"/>
<path d="M203.179 146.342C208.933 146.342 214.687 146.342 220.442 146.342C220.546 148.405 220.576 150.483 220.442 152.56H214.672C214.672 156.359 214.672 160.158 214.672 163.943H207.934C208.153 160.149 208.347 156.354 208.515 152.56L203.149 152.631L203.179 146.342Z" fill="#005ADC"/>
<path d="M223.17 146.342H230.102C231.593 148.049 233.084 149.785 234.425 151.536C235.35 149.8 236.274 148.064 237.243 146.356C239.583 146.356 241.924 146.356 244.279 146.356C241.367 152.237 238.435 158.109 235.484 163.971H228.03C229.267 161.652 230.49 159.347 231.757 157.042C228.939 153.442 226.047 149.899 223.17 146.342Z" fill="#005ADC"/>
</g>
<defs>
<clipPath id="clip0_216_37">
<rect width="342" height="164" fill="white"/>
</clipPath>
</defs>
</svg>
