<svg width="378" height="119" viewBox="0 0 378 119" fill="none" xmlns="http://www.w3.org/2000/svg">
<path d="M243.755 50.0476C236.031 50.0476 232.259 52.282 232.259 55.1699V63.2052C232.259 64.9982 229.701 66.5875 225.869 66.5875H205.903C205.865 66.5875 205.828 66.5909 205.793 66.5976C205.759 66.6044 205.727 66.6142 205.701 66.6267C205.674 66.6392 205.653 66.654 205.639 66.6703C205.624 66.6866 205.617 66.704 205.616 66.7217V68.4925C205.617 68.5281 205.647 68.5622 205.701 68.5873C205.755 68.6124 205.827 68.6265 205.903 68.6264H229.442C237.166 68.6264 240.95 66.7084 240.95 63.8263V55.1699C240.95 53.3712 243.738 52.0809 247.57 52.0809H267.65C267.725 52.081 267.798 52.0669 267.852 52.0418C267.906 52.0166 267.936 51.9825 267.936 51.9469V50.1816C267.936 50.164 267.928 50.1465 267.914 50.1302C267.899 50.1139 267.878 50.0991 267.852 50.0866C267.825 50.0742 267.794 50.0643 267.759 50.0576C267.724 50.0509 267.687 50.0475 267.649 50.0476H243.755ZM196.882 49.9617H150.464C150.388 49.9617 150.316 49.9758 150.262 50.0009C150.209 50.026 150.179 50.0601 150.178 50.0957V52.0252C150.184 52.1002 150.316 52.1594 150.476 52.1594H193.997C196.248 52.1594 199.637 53.0202 199.637 55.0854C199.637 57.1505 195.882 58.017 193.997 58.017H159.907C154.351 58.017 150.166 60.36 150.166 63.2599V68.5645C150.165 68.5823 150.171 68.6001 150.185 68.6167C150.198 68.6334 150.219 68.6484 150.246 68.661C150.273 68.6737 150.305 68.6835 150.341 68.69C150.376 68.6965 150.414 68.6995 150.452 68.6987H158.596C158.672 68.6987 158.744 68.6846 158.798 68.6594C158.851 68.6342 158.882 68.6001 158.882 68.5645V63.2544C158.882 61.4608 161.762 60.0894 164.922 60.0894L196.859 60.2035C204.573 60.2035 208.341 57.9686 208.341 55.0854C208.341 52.2021 204.573 49.9617 196.859 49.9617H196.882ZM75.2437 43.79V72.7694L89.1978 74.8523V50.5437C89.1978 49.4209 90.2734 48.6462 92.0175 48.9099C94.2995 49.2075 94.7415 50.2574 94.7415 51.3913V61.0981C103.439 63.0741 110.273 61.0981 110.273 55.8882C110.285 50.5437 106.282 48.1746 94.5025 46.2826C88.1921 45.275 81.7614 44.4427 75.2437 43.79V43.79Z" fill="white"/>
<path d="M92.2482 70.5522L114.718 66.7667C117.265 66.3372 117.66 65.7213 115.591 65.405C112.816 65.1016 109.915 65.1721 107.22 65.6083L92.2482 68.0944V64.1393L93.109 64.0037C96.4947 63.4849 99.9853 63.1327 103.525 62.9526C110.075 62.6369 116.691 63.0094 122.898 64.0432C129.487 65.032 130.229 66.4785 128.554 67.4786C126.88 68.4787 122.778 69.1736 122.778 69.1736L92.2482 74.372V70.5522ZM50.0052 70.2348C43.281 69.3361 42.1645 67.4655 45.2534 66.3802C47.6337 65.6457 50.2051 65.0586 52.9042 64.6337L72.8036 61.2424V65.0745L58.5473 67.5163C56.0167 67.9458 55.6365 68.5561 57.6802 68.8783C60.4373 69.182 63.3208 69.1115 65.9961 68.6748L72.8631 67.488V70.9526L71.4968 71.0544C64.3334 71.6066 56.9917 71.3253 50.1124 70.2348" fill="white"/>
<path fill-rule="evenodd" clip-rule="evenodd" d="M276.611 50.0476H332.283C332.547 50.0476 332.68 50.0959 332.68 50.1924V51.9872C332.68 52.0744 332.547 52.1138 332.283 52.1058C301.108 52.1047 285.392 52.1047 285.134 52.1058C284.876 52.1069 284.714 52.148 284.65 52.2292V56.5656C284.65 56.8892 285.239 57.9326 287.497 57.9326H322.89C327.212 57.9326 334.385 59.3506 334.385 63.2721C334.385 67.1935 326.865 68.6489 323.803 68.6489H276.611C276.379 68.6489 276.269 68.6313 276.269 68.499C276.269 68.3667 276.254 66.8092 276.269 66.726C276.284 66.6428 276.343 66.597 276.611 66.5962C276.88 66.5953 315.807 66.5962 318.253 66.5962C320.7 66.5962 325.665 65.7192 325.665 63.2721C325.665 60.8248 320.556 60.0895 319.254 60.0895H281.868C281.113 60.0895 279.289 59.9611 277.884 59.2001C276.479 58.439 276.269 58.0069 276.269 56.984V50.1924C276.269 50.0959 276.384 50.0476 276.611 50.0476H276.611Z" fill="white"/>
</svg>
