<svg width="376" height="116" viewBox="0 0 376 116" fill="none" xmlns="http://www.w3.org/2000/svg">
<path d="M255.922 49.7421L258.709 47.5188H227.953V49.7421H255.922Z" fill="#00FF00"/>
<path d="M255.922 58.7313L258.709 56.5081H227.953V58.7313H255.922Z" fill="#00FF00"/>
<path d="M255.922 67.7206L258.709 65.4973H227.953V67.7206H255.922Z" fill="#00FF00"/>
<path d="M320.24 53.7787V52.4973C320.24 51.8435 319.96 51.1961 319.416 50.5921C318.872 49.9881 318.074 49.4393 317.069 48.977C316.063 48.5147 314.869 48.148 313.556 47.8978C312.242 47.6476 310.834 47.5188 309.412 47.5188H289.469V67.7273H294.305V58.7572H303.363L314.652 67.7273H320.226L308.938 58.7572H309.398C310.821 58.758 312.23 58.6299 313.546 58.38C314.861 58.1302 316.057 57.7637 317.064 57.3013C318.071 56.8389 318.869 56.2898 319.414 55.6854C319.96 55.0809 320.24 54.433 320.24 53.7787H320.24ZM294.305 49.7422H309.412C311 49.7438 312.522 50.0347 313.645 50.551C314.768 51.0673 315.401 51.7671 315.404 52.4973V53.7787C315.401 54.5089 314.768 55.2087 313.645 55.725C312.522 56.2413 311 56.5322 309.412 56.5338H294.305V49.7422Z" fill="#00FF00"/>
<path d="M74.1556 53.7787V52.4973C74.1556 51.8435 73.8756 51.1961 73.3314 50.5921C72.7872 49.9881 71.9896 49.4393 70.9841 48.977C69.9786 48.5147 68.7849 48.148 67.4711 47.8978C66.1573 47.6476 64.7493 47.5188 63.3273 47.5188H43.3846V67.7273H48.2204V58.7572H57.3208L68.609 67.7273H74.1835L62.8952 58.7572H63.3551C66.2221 58.7538 68.9692 58.2278 70.9939 57.2945C73.0186 56.3612 74.1556 55.0969 74.1556 53.7787ZM48.2204 49.7422H63.3273C64.9154 49.7439 66.4375 50.0347 67.5605 50.551C68.6836 51.0673 69.3161 51.7671 69.3197 52.4973V53.7787C69.3161 54.5089 68.6836 55.2087 67.5605 55.725C66.4375 56.2413 64.9154 56.5322 63.3273 56.5338H48.2205L48.2204 49.7422Z" fill="#00FF00"/>
<path d="M137.968 67.7206L122.82 50.4853L120.214 47.5188L117.608 50.4853L102.459 67.7206H107.671L120.214 53.4518L132.756 67.7206H137.968Z" fill="#00FF00"/>
<path d="M324.1 47.5188H327.18V47.8007H325.996V49.4794H325.299V47.8007H324.1V47.5188Z" fill="#00FF00"/>
<path d="M328.365 47.5251H329.549L330.469 49.0565L331.417 47.5251H332.615V49.4794H331.933V47.8711H331.863L330.859 49.4025H330.149L329.076 47.8711V49.4794H328.393L328.365 47.5251Z" fill="#00FF00"/>
<path d="M189.015 49.7421L169.226 65.4973L166.425 67.7206H194.576L197.363 65.4973H174.801L194.59 49.7421L197.377 47.5188H166.425V49.7421H189.015Z" fill="#00FF00"/>
<path d="M255.922 49.7421L258.709 47.5188H227.953V49.7421H255.922Z" fill="#00FF00"/>
<path d="M255.922 58.7313L258.709 56.5081H227.953V58.7313H255.922Z" fill="#00FF00"/>
<path d="M255.922 67.7206L258.709 65.4973H227.953V67.7206H255.922Z" fill="#00FF00"/>
<path d="M137.968 67.7206L122.82 50.4853L120.214 47.5188L117.608 50.4853L102.459 67.7206H107.671L120.214 53.4518L132.756 67.7206H137.968Z" fill="#00FF00"/>
</svg>
