<svg width="342" height="106" viewBox="0 0 342 106" fill="none" xmlns="http://www.w3.org/2000/svg">
<path d="M0 0H342V106H0V0Z" fill="#E60012"/>
<path d="M63.2505 86.4254C40.369 86.4179 25.0799 71.3405 25.0799 53.0592C25.0799 34.7784 40.4037 19.5277 63.2157 19.5743H278.784C301.595 19.5277 316.92 34.7784 316.92 53.0597C316.92 71.3405 301.631 86.4179 278.749 86.4254H63.2505ZM63.3206 27.7978C45.206 27.8301 34.087 39.0879 34.087 53.0163C34.087 66.9404 45.1359 78.292 63.3206 78.2305H278.679C296.863 78.2888 307.916 66.9404 307.916 53.0163C307.916 39.0916 296.797 27.8339 278.683 27.8015L63.3206 27.7978ZM290.263 39.5532C291.911 39.5532 292.729 40.0721 292.729 41.0987C292.729 41.8052 292.255 42.3389 291.469 42.5223L292.759 44.9189H291.197L290.093 42.7205H289.407V44.9189H288V39.5532H290.263ZM290.136 37.4555C287.26 37.4555 284.927 39.6253 284.927 42.2991C284.927 44.973 287.26 47.1423 290.136 47.1423C293.011 47.1423 295.344 44.973 295.344 42.2991C295.344 39.6253 293.011 37.4555 290.136 37.4555ZM294.348 42.3023C294.348 44.4647 292.461 46.2195 290.136 46.2195C289.019 46.219 287.948 45.8061 287.158 45.0717C286.368 44.3373 285.924 43.3415 285.923 42.3029C285.923 40.1405 287.81 38.3856 290.136 38.3856C291.253 38.3856 292.324 38.7983 293.114 39.5328C293.904 40.2673 294.348 41.2635 294.348 42.3023ZM289.407 41.935H290.093C290.895 41.935 291.283 41.7082 291.283 41.1745C291.283 40.6159 290.868 40.3742 290.023 40.3742H289.407V41.935ZM171.682 55.0483C171.666 53.2145 171.709 51.9891 172.356 50.944C173.151 49.6539 174.612 49.0413 175.937 49.0339H175.933C177.259 49.0413 178.72 49.6539 179.515 50.944C180.161 51.9928 180.189 53.2177 180.173 55.052L171.682 55.0483ZM180.139 61.3585C180.139 61.3585 180.146 61.4523 180.146 62.6268C180.146 66.4539 177.437 67.3045 175.934 67.3045C174.43 67.3045 171.674 66.4539 171.674 62.6268C171.674 61.4809 171.682 58.3062 171.682 58.3062C171.682 58.3062 190.855 58.3136 190.855 58.3025C190.855 51.8126 184.115 46.4358 175.837 46.4358C167.558 46.4358 160.85 51.6971 160.85 58.1869C160.85 64.6773 167.559 69.9349 175.837 69.9349C182.704 69.9349 188.506 66.2917 190.277 61.3511L180.139 61.3585ZM212.162 46.7856C215.968 46.6849 223.688 49.0015 223.634 57.2865C223.627 58.7567 223.63 68.6741 223.63 68.6741H213.518V54.9291C213.518 53.1059 211.643 51.077 208.868 51.077C206.097 51.077 204.035 53.1059 204.035 54.9291C204.035 55.8226 204.047 68.6735 204.047 68.6735H193.944L193.951 47.747L204.051 47.7401C204.051 47.7401 204.039 49.4229 204.051 49.9417C205.996 48.2155 208.802 46.8752 212.162 46.7851V46.7856ZM129.45 46.7856C133.256 46.6849 140.975 49.0015 140.922 57.2865C140.914 58.7567 140.918 68.6741 140.918 68.6741H130.806V54.9291C130.806 53.1059 128.93 51.077 126.155 51.077C123.384 51.077 121.323 53.1059 121.323 54.9291C121.323 55.8226 121.334 68.6735 121.334 68.6735H111.23L111.226 47.747L121.337 47.7401C121.337 47.7401 121.326 49.4229 121.337 49.9417C123.283 48.2155 126.085 46.8752 129.449 46.7851L129.45 46.7856ZM245.57 37.2106H255.616V68.6809H245.555C245.555 68.6809 245.551 67.6649 245.551 67.4704C241.656 69.7441 237.261 69.7404 233.838 68.2559C232.92 67.8594 226.878 65.1639 226.878 57.8812C226.878 52.3564 232.482 46.324 239.819 46.9223C242.233 47.1206 243.95 47.9389 245.578 48.789C245.57 43.9459 245.57 37.2106 245.57 37.2106ZM245.644 58.1117V54.3709C245.644 51.1348 243.241 50.3096 241.66 50.3096C240.04 50.3096 237.668 51.1348 237.668 54.3709C237.668 55.4447 237.672 58.1006 237.672 58.1006C237.672 58.1006 237.668 60.7098 237.668 61.8233C237.668 65.0563 240.04 65.9027 241.656 65.9027C243.241 65.9027 245.648 65.0558 245.648 61.8233C245.648 60.4792 245.644 58.1117 245.644 58.1117H245.644ZM277.893 58.0502C277.893 58.0502 277.889 61.2143 277.889 62.4826C277.889 65.82 275.768 67.1964 273.73 67.1964C271.688 67.1964 269.56 65.82 269.56 62.4826C269.56 61.2143 269.564 57.9712 269.564 57.9712C269.564 57.9712 269.572 54.876 269.572 53.6072C269.572 50.2841 271.703 48.9188 273.73 48.9188C275.761 48.9188 277.889 50.2847 277.889 53.6072C277.889 54.8755 277.885 57.2218 277.897 58.0613L277.893 58.0502ZM273.804 46.324C265.587 46.324 258.929 51.5853 258.929 58.0757C258.929 64.5655 265.591 69.8268 273.804 69.8268C282.02 69.8268 288.679 64.5655 288.679 58.0757C288.679 51.5853 282.02 46.324 273.804 46.324ZM95.4224 43.6358V37.2032H105.623V43.6358H95.4224ZM95.4452 68.6809V47.7512L105.623 47.755V68.6809H95.4452ZM146.506 68.6809L146.51 47.7947H140.976V44.6884L146.514 44.6847L146.506 40.4468H156.691V44.681H162.202V47.7942H156.691L156.699 68.6809H146.506ZM54.0267 68.6809L54.0307 37.2106H64.5757L79.1637 59.1569L79.1558 37.2106H89.6204V68.6809H79.1717L64.5062 46.7352V68.6809H54.0267Z" fill="white"/>
</svg>
