<svg width="400" height="153" viewBox="0 0 400 153" fill="none" xmlns="http://www.w3.org/2000/svg">
<path d="M257.942 64.5409C249.769 64.5409 245.777 67.4224 245.777 71.1465V81.5088C245.777 83.8212 243.07 85.8707 239.015 85.8707H217.887C217.847 85.8706 217.808 85.875 217.771 85.8837C217.734 85.8924 217.701 85.9051 217.673 85.9212C217.645 85.9373 217.622 85.9563 217.607 85.9774C217.592 85.9984 217.584 86.0209 217.584 86.0437V88.3273C217.584 88.3732 217.616 88.4172 217.673 88.4496C217.73 88.4819 217.807 88.5001 217.887 88.4999H242.796C250.969 88.4999 254.973 86.0266 254.973 82.3098V71.1465C254.973 68.827 257.924 67.163 261.979 67.163H283.227C283.307 67.1631 283.384 67.145 283.441 67.1126C283.498 67.0802 283.53 67.0361 283.53 66.9902V64.7137C283.53 64.6909 283.522 64.6684 283.507 64.6474C283.492 64.6264 283.469 64.6073 283.441 64.5913C283.413 64.5752 283.379 64.5625 283.343 64.5538C283.306 64.5452 283.267 64.5408 283.227 64.5409H257.942ZM208.341 64.4301H159.221C159.141 64.4301 159.064 64.4483 159.008 64.4807C158.951 64.5131 158.919 64.557 158.919 64.6029V67.0912C158.925 67.1879 159.065 67.2642 159.234 67.2642H205.288C207.67 67.2642 211.256 68.3744 211.256 71.0376C211.256 73.7007 207.283 74.8182 205.288 74.8182H169.214C163.335 74.8182 158.906 77.8398 158.906 81.5794V88.4202C158.904 88.4431 158.911 88.4661 158.925 88.4875C158.94 88.509 158.962 88.5284 158.991 88.5446C159.019 88.561 159.053 88.5737 159.091 88.582C159.128 88.5904 159.169 88.5942 159.209 88.5932H167.827C167.907 88.5932 167.983 88.575 168.04 88.5425C168.097 88.5101 168.129 88.4661 168.129 88.4202V81.5723C168.129 79.2593 171.177 77.4908 174.521 77.4908L208.316 77.6379C216.48 77.6379 220.466 74.7558 220.466 71.0376C220.466 67.3193 216.479 64.4301 208.316 64.4301H208.341ZM79.623 56.4712V93.8428L94.3892 96.5288V65.1806C94.3892 63.7327 95.5274 62.7336 97.3731 63.0738C99.7878 63.4575 100.256 64.8115 100.256 66.2737V78.7915C109.459 81.3398 116.691 78.7915 116.691 72.0728C116.703 65.1806 112.468 62.1255 100.003 59.6856C93.325 58.3861 86.52 57.3128 79.623 56.4712V56.4712Z" fill="white"/>
<path d="M97.6172 90.9836L121.395 86.1018C124.09 85.5479 124.508 84.7537 122.319 84.3457C119.382 83.9545 116.312 84.0454 113.461 84.608L97.6172 87.814V82.7136L98.5281 82.5387C102.111 81.8697 105.805 81.4155 109.55 81.1832C116.481 80.776 123.483 81.2564 130.051 82.5897C137.023 83.8647 137.808 85.7302 136.036 87.0199C134.265 88.3097 129.924 89.2058 129.924 89.2058L97.6172 95.9096V90.9836ZM52.9155 90.5743C45.8 89.4153 44.6185 87.003 47.8872 85.6034C50.406 84.6562 53.1271 83.8991 55.9833 83.3511L77.0408 78.9778V83.9196L61.9549 87.0685C59.2769 87.6223 58.8746 88.4095 61.0372 88.825C63.9548 89.2166 67.0061 89.1256 69.8372 88.5625L77.1038 87.032V91.5L75.6579 91.6312C68.0776 92.3434 60.3087 91.9805 53.029 90.5743" fill="white"/>
<path fill-rule="evenodd" clip-rule="evenodd" d="M292.71 64.5408H351.622C351.902 64.5408 352.042 64.603 352.042 64.7275V67.0421C352.042 67.1545 351.902 67.2054 351.622 67.195C318.633 67.1935 302.002 67.1935 301.729 67.195C301.456 67.1964 301.285 67.2494 301.217 67.3541V72.9464C301.217 73.3637 301.84 74.7092 304.229 74.7092H341.682C346.257 74.7092 353.846 76.5379 353.846 81.595C353.846 86.652 345.888 88.5288 342.649 88.5288H292.71C292.465 88.5288 292.348 88.5062 292.348 88.3356C292.348 88.165 292.333 86.1565 292.348 86.0491C292.364 85.9418 292.426 85.8828 292.71 85.8818C292.994 85.8806 334.188 85.8818 336.776 85.8818C339.365 85.8818 344.619 84.7508 344.619 81.595C344.619 78.439 339.212 77.4907 337.835 77.4907H298.273C297.474 77.4907 295.543 77.3252 294.057 76.3438C292.57 75.3622 292.348 74.8051 292.348 73.4859V64.7275C292.348 64.603 292.469 64.5408 292.71 64.5408H292.71Z" fill="white"/>
</svg>
