<svg width="359" height="144" viewBox="0 0 359 144" fill="none" xmlns="http://www.w3.org/2000/svg">
<path d="M244.351 62.1528L247.012 59.3748H217.646V62.1528H244.351Z" fill="#00FF00"/>
<path d="M244.351 73.3849L247.012 70.6069H217.646V73.3849H244.351Z" fill="#00FF00"/>
<path d="M244.351 84.6169L247.012 81.8389H217.646V84.6169H244.351Z" fill="#00FF00"/>
<path d="M305.761 67.1965V65.5954C305.761 64.7785 305.494 63.9696 304.974 63.2149C304.455 62.4601 303.693 61.7744 302.733 61.1967C301.773 60.6191 300.633 60.1609 299.379 59.8483C298.124 59.5357 296.78 59.3748 295.422 59.3748H276.381V84.6253H280.999V73.4171H289.648L300.425 84.6253H305.748L294.97 73.4171H295.409C296.768 73.4182 298.114 73.258 299.37 72.9459C300.626 72.6337 301.767 72.1757 302.728 71.598C303.69 71.0202 304.452 70.3341 304.973 69.5789C305.493 68.8236 305.761 68.0141 305.761 67.1965H305.761ZM280.999 62.1528H295.422C296.939 62.155 298.392 62.5183 299.464 63.1635C300.537 63.8086 301.14 64.683 301.144 65.5954V67.1965C301.14 68.1089 300.537 68.9833 299.464 69.6284C298.392 70.2736 296.939 70.6369 295.422 70.6391H280.999V62.1528Z" fill="#00FF00"/>
<path d="M70.8029 67.1965V65.5954C70.8029 64.7785 70.5355 63.9696 70.0159 63.2149C69.4963 62.4601 68.7348 61.7744 67.7747 61.1967C66.8147 60.6191 65.6749 60.1609 64.4206 59.8483C63.1662 59.5357 61.8218 59.3748 60.4641 59.3748H41.4231V84.6253H46.0403V73.4171H54.7292L65.5071 84.6253H70.8295L60.0516 73.4171H60.4906C63.2281 73.4129 65.851 72.7556 67.7841 71.5895C69.7173 70.4234 70.8029 68.8436 70.8029 67.1965ZM46.0403 62.1528H60.4641C61.9805 62.155 63.4337 62.5183 64.506 63.1635C65.5782 63.8086 66.1821 64.683 66.1856 65.5954V67.1965C66.1821 68.1089 65.5782 68.9833 64.506 69.6284C63.4337 70.2736 61.9805 70.6369 60.4641 70.6391H46.0403L46.0403 62.1528Z" fill="#00FF00"/>
<path d="M131.73 84.6169L117.267 63.0814L114.778 59.3748L112.29 63.0814L97.8267 84.6169H102.803L114.778 66.7881L126.754 84.6169H131.73Z" fill="#00FF00"/>
<path d="M309.447 59.3748H312.388V59.727H311.257V61.8246H310.591V59.727H309.447V59.3748Z" fill="#00FF00"/>
<path d="M313.519 59.3828H314.65L315.528 61.2962L316.433 59.3828H317.577V61.8246H316.925V59.8151H316.858L315.9 61.7286H315.222L314.197 59.8151V61.8246H313.545L313.519 59.3828Z" fill="#00FF00"/>
<path d="M180.47 62.1528L161.575 81.8389L158.901 84.6169H185.779L188.44 81.8389H166.898L185.792 62.1528L188.453 59.3748H158.901V62.1528H180.47Z" fill="#00FF00"/>
<path d="M244.351 62.1528L247.012 59.3748H217.646V62.1528H244.351Z" fill="#00FF00"/>
<path d="M244.351 73.3849L247.012 70.6069H217.646V73.3849H244.351Z" fill="#00FF00"/>
<path d="M244.351 84.6169L247.012 81.8389H217.646V84.6169H244.351Z" fill="#00FF00"/>
<path d="M131.73 84.6169L117.267 63.0814L114.778 59.3748L112.29 63.0814L97.8267 84.6169H102.803L114.778 66.7881L126.754 84.6169H131.73Z" fill="#00FF00"/>
</svg>
