<svg width="400" height="104" viewBox="0 0 400 104" fill="none" xmlns="http://www.w3.org/2000/svg">
<path d="M96.0092 67.529L91.5615 63.0599L134.549 63.9219L132.618 71.0746L96.0092 67.529ZM106.309 32.9092L46.1539 43.9917L55.4573 60.6918H67.7277L65.6085 48.7456L67.4911 48.5181L74.8691 60.6918H87.6168L87.145 46.1403L89.0282 45.9125L95.4762 60.6918H108.973L112.157 43.1149L114.039 42.8868L117.379 60.6918H135.227L141.509 36.2493L106.309 32.9092ZM292.087 69.2649L291.962 67.8716L304.312 67.8148L304.426 66.2963L291.816 66.2353L291.691 64.8247L308.303 64.6728L308.439 63.0071H286.028L285.36 71.091H308.853L308.688 69.4219L292.087 69.2649ZM180.338 66.2926L180.074 67.8053L186.307 67.8864L186.228 69.4219L173.182 69.2726L173.75 64.838L191.688 64.6762L191.429 63.0071H168.259L166.181 71.091H192.581L191.897 66.2144L180.338 66.2926ZM343.862 66.9183L326.739 65.7893L326.813 64.9143L343.193 64.676L342.78 63.0071H321.724L320.647 67.197L338.054 68.3775L338.133 69.1475L320.021 69.4219L319.577 71.091H344.926L343.862 66.9183ZM273.991 71.091L271.914 63.0071H265.948L257.379 66.8605L248.809 63.0071H242.845L240.767 71.091H247.775L248.445 65.8466L257.379 69.4219L266.313 65.8466L266.984 71.091H273.991ZM244.542 33.4032H230.517L229.24 58.403H246.185L244.542 33.4032ZM287.997 52.9653L272.523 53.1599L272.009 38.4572L288.195 38.6481L287.997 52.9653ZM301.56 33.4143H257.835L256.133 58.403H304.665L301.56 33.4143ZM353.846 38.8743L352.284 33.4032H309.204L309.569 38.2766L323.347 38.4628L324.76 58.4033H341.738L336.66 38.6423L353.846 38.8743ZM187.298 38.5174L200.812 38.3411L202.352 43.322L186.754 46.1954L187.298 38.5174ZM203.086 58.403H221.491L209.496 47.1828L219.068 45.1433L212.528 33.4032H165.546L164 38.821L174.51 38.6842L169.442 58.403H185.89L186.335 52.1173L198.186 49.5923L203.086 58.403ZM212.038 67.4476L213.463 64.8027L220.305 64.6821L221.735 67.3362L212.038 67.4476ZM223.759 71.091H230.854L225.24 63.0066H208.592L202.979 71.091H210.074L211.173 69.0515L222.691 69.1096L223.759 71.091Z" fill="#D22A36"/>
</svg>
