<svg width="421" height="200" viewBox="0 0 421 200" fill="none" xmlns="http://www.w3.org/2000/svg">
<path d="M101.05 129.863L96.3684 121.269L141.612 122.926L139.581 136.682L101.05 129.863ZM111.891 63.2866L48.5769 84.5992L58.3688 116.715H71.2834L69.0529 93.7413L71.0343 93.3038L78.7997 116.715H92.2166L91.72 88.731L93.7022 88.293L100.489 116.715H114.694L118.045 82.913L120.026 82.4744L123.541 116.715H142.326L148.938 69.7099L111.891 63.2866ZM307.421 133.202L307.29 130.522L320.289 130.413L320.408 127.493L307.137 127.375L307.004 124.663L324.489 124.37L324.632 121.167H301.044L300.341 136.713H325.068L324.894 133.503L307.421 133.202ZM189.805 127.485L189.528 130.394L196.088 130.551L196.005 133.503L182.274 133.216L182.872 124.688L201.752 124.377L201.479 121.167H177.093L174.906 136.713H202.691L201.971 127.335L189.805 127.485ZM361.914 128.689L343.893 126.518L343.971 124.835L361.211 124.377L360.776 121.167H338.615L337.481 129.225L355.802 131.495L355.885 132.976L336.822 133.503L336.355 136.713H363.035L361.914 128.689ZM288.376 136.713L286.189 121.167H279.911L270.892 128.578L261.872 121.167H255.594L253.407 136.713H260.783L261.488 126.628L270.892 133.503L280.294 126.628L281.001 136.713H288.376ZM257.38 64.2366H242.619L241.276 112.313H259.11L257.38 64.2366ZM303.117 101.856L286.83 102.23L286.29 73.9559L303.325 74.3231L303.117 101.856ZM317.391 64.258H271.372L269.58 112.313H320.659L317.391 64.258ZM372.423 74.758L370.779 64.2366H325.437L325.821 73.6087L340.323 73.9666L341.81 112.314H359.679L354.334 74.3118L372.423 74.758ZM197.131 74.0717L211.355 73.7326L212.975 83.3112L196.558 88.8371L197.131 74.0717ZM213.748 112.313H233.119L220.495 90.7359L230.569 86.8137L223.686 64.2366H174.237L172.61 74.6555L183.671 74.3924L178.338 112.313H195.649L196.117 100.225L208.591 95.3695L213.748 112.313ZM223.169 129.707L224.669 124.62L231.871 124.388L233.376 129.492L223.169 129.707ZM235.506 136.713H242.974L237.065 121.166H219.543L213.635 136.713H221.103L222.259 132.791L234.382 132.903L235.506 136.713Z" fill="#D22A36"/>
</svg>
